# xmcd CD database file
#
# Track frame offsets:
#	150
#	58944
#	114222
#	151941
#	174370
#	222465
#
# Disc length: 3453 seconds
#
# Revision: 0
# Processed by: cddbd v1.5.2PL0 Copyright (c) Steve Scherf et al.
# Submitted via: CDex 1.70beta2
#
DISCID=4b0d7b06
DTITLE=Atomic - Retrograde
DYEAR=2008
DGENRE=Jazz
TTITLE0=Crux
TTITLE1=Db Gestalt
TTITLE2=Painbody
TTITLE3=Swedish Oklahoma in the Desert of Love
TTITLE4=King Kolax
TTITLE5=ABC 101b
EXTD=YEAR: 2008
EXTT0=
EXTT1=
EXTT2=
EXTT3=
EXTT4=
EXTT5=
PLAYORDER=
